# xmcd
#
# Track frame offsets:
#	300
#	18132
#	38642
#	54278
#	67167
#	90025
#	116275
#	136921
#
# Disc length: 2816 seconds
#
# Revision: 2
# Processed by: cddbd v1.5.2PL0 Copyright (c) Steve Scherf et al.
# Submitted via: EasyCDDAExtractor 15.3.0.1
#
DISCID=560afc08
DTITLE=Lissette and Chucho - Acompañame - En Vivo - CD 2
DYEAR=2010
DGENRE=Latin
TTITLE0=Chucho - Jamas Te Olvidare
TTITLE1=Chucho - Amor Desolado
TTITLE2=Chucho - Se Acabo
TTITLE3=Lissette - Eva
TTITLE4=Lissette - Poema 20
TTITLE5=Lissette - Eclipse Total Del Amor
TTITLE6=Lissette and Chucho - Acompañame
TTITLE7=Lissette and Chucho - Medley De Exitos Final
EXTD=
EXTT0=
EXTT1=
EXTT2=
EXTT3=
EXTT4=
EXTT5=
EXTT6=
EXTT7=
PLAYORDER=
